#!OML:ASF F:\VICON\USERDATA\INSTALL\rory3\rory3.ASF
:FULLY-SPECIFIED
:DEGREES
1772
root -1.29672 16.7635 29.7837 -515.291 -22.3889 171.962
lowerback -17.6186 -1.00219 -9.51452
upperback -6.45695 -0.672048 -4.17636
thorax 2.87479 -0.763994 0.776304
lowerneck -9.36448 5.02602 0.665869
upperneck -5.97007 5.99207 -7.07392
head -0.0428244 2.72642 -2.1615
rclavicle -6.2816e-014 -2.78299e-014
rhumerus -35.8133 0.132318 -87.8164
rradius 38.0243
rwrist 3.98988
rhand 0.132139 16.8789
rfingers 7.12502
rthumb 25.7169 -11.4036
lclavicle -6.2816e-014 -2.78299e-014
lhumerus -43.259 -3.10515 82.9706
lradius 62.8638
lwrist -27.7763
lhand 18.5487 12.5521
lfingers 7.12502
lthumb 43.1808 36.7338
rfemur -254.015 -164.242 200.801
rtibia 44.3758
rfoot 347.559 -403.418
rtoes 50.7125
lfemur -27.565 -5.02492 -31.7848
ltibia 31.2388
lfoot -38.8934 25.1755
ltoes -0.420747
1773
root -1.28607 16.7565 29.7711 -515.196 -22.403 172.007
lowerback -17.5375 -0.934803 -9.4899
upperback -6.26522 -0.541491 -4.13536
thorax 3.03197 -0.691737 0.831321
lowerneck -9.59201 5.3809 0.935332
upperneck -5.79369 6.43627 -7.76468
head 0.106682 2.92462 -2.41105
rclavicle -4.5385e-014 -2.94201e-014
rhumerus -35.9027 2.16041 -89.159
rradius 40.5333
rwrist 3.46655
rhand -0.0754327 17.1977
rfingers 7.12502
rthumb 25.5181 -11.1134
lclavicle -4.5385e-014 -2.94201e-014
lhumerus -42.793 -3.12718 83.9934
lradius 63.5169
lwrist -28.2633
lhand 17.166 12.8374
lfingers 7.12502
lthumb 41.8865 37.4654
rfemur -254.756 -163.231 202.167
rtibia 44.6147
rfoot 352.131 -403.658
rtoes 48.9957
lfemur -27.648 -5.02016 -31.6743
ltibia 31.2039
lfoot -38.8051 25.178
ltoes -0.490954
1774
root -1.27292 16.7561 29.7519 -515.216 -22.2822 172.047
lowerback -17.4317 -0.69816 -9.56153
upperback -6.1085 -0.186467 -4.19323
thorax 3.11677 -0.511031 0.880031
lowerneck -9.33888 5.54415 1.47039
upperneck -5.7299 6.60197 -8.57765
head 0.147934 2.99597 -2.77474
rclavicle -4.35463e-014 6.04305e-014
rhumerus -36.0061 3.7867 -90.2388
rradius 43.0396
rwrist 2.87731
rhand -0.240413 17.3245
rfingers 7.12502
rthumb 25.3601 -11.0092
lclavicle -4.35463e-014 6.04305e-014
lhumerus -42.5461 -3.56946 84.9924
lradius 64.3098
lwrist -28.4363
lhand 15.7211 12.9874
lfingers 7.12502
lthumb 40.5299 38.0514
rfemur -255.277 -162.471 203.305
rtibia 44.8444
rfoot 355.518 -403.556
rtoes 47.8374
lfemur -27.6073 -4.8158 -31.6262
ltibia 31.2139
lfoot -38.578 25.3291
ltoes -0.97546
1775
root -1.25521 16.7606 29.7256 -515.487 -22.2064 172.099
lowerback -17.0274 -0.417414 -9.65245
upperback -5.93418 0.201514 -4.30617
thorax 3.05952 -0.306345 0.889971
lowerneck -9.24315 5.69987 1.80835
upperneck -5.46636 6.8157 -8.95295
head 0.258001 3.098 -2.95139
rclavicle 3.10601e-014 4.6118e-014
rhumerus -36.0373 5.26128 -91.2537
rradius 44.9785
rwrist 2.75061
rhand -1.6635 17.8953
rfingers 7.12502
rthumb 23.9961 -10.6249
lclavicle 3.10601e-014 4.6118e-014
lhumerus -42.4843 -4.0594 85.8324
lradius 65.2499
lwrist -28.736
lhand 14.4976 12.8378
lfingers 7.12502
lthumb 39.3785 38.2483
rfemur -255.453 -161.759 204.321
rtibia 45.0529
rfoot 358.548 -403.328
rtoes 46.6923
lfemur -27.3106 -4.69224 -31.5191
ltibia 31.3261
lfoot -38.6221 25.3401
ltoes -1.14998
1776
root -1.23632 16.7577 29.7093 -515.516 -22.3151 172.221
lowerback -16.6298 -0.203866 -9.4703
upperback -5.89968 0.425721 -4.44778
thorax 2.87456 -0.185333 0.684868
lowerneck -9.42401 5.87739 2.14019
upperneck -4.96571 7.08709 -9.16546
head 0.489449 3.22103 -3.0601
rclavicle 2.22142e-014 4.85035e-014
rhumerus -36.1288 6.50558 -92.2327
rradius 47.0887
rwrist 2.16633
rhand -2.71155 18.0162
rfingers 7.12502
rthumb 22.9908 -10.6327
lclavicle 2.22142e-014 4.85035e-014
lhumerus -42.3478 -4.35696 86.448
lradius 65.917
lwrist -29.218
lhand 13.1571 12.4344
lfingers 7.12502
lthumb 38.1143 38.2024
rfemur -255.908 -161.146 205.358
rtibia 45.2985
rfoot 360.679 -403.06
rtoes 45.8815
lfemur -27.3331 -4.86578 -31.2385
ltibia 31.342
lfoot -38.6733 25.4747
ltoes -1.35007
1777
root -1.22018 16.749 29.7048 -515.193 -22.3696 172.307
lowerback -16.4561 -0.000248203 -9.217
upperback -5.99076 0.618214 -4.6227
thorax 2.67854 -0.0902901 0.396161
lowerneck -9.34166 6.02089 2.29893
upperneck -4.73502 7.30497 -9.22095
head 0.572463 3.33307 -3.09655
rclavicle -1.45113e-014 -7.95139e-015
rhumerus -36.1776 7.45611 -92.9893
rradius 49.3087
rwrist 1.21291
rhand -2.18775 17.8989
rfingers 7.12502
rthumb 23.4933 -10.6866
lclavicle -1.45113e-014 -7.95139e-015
lhumerus -42.2615 -4.55211 86.928
lradius 66.5666
lwrist -29.8153
lhand 11.8682 11.8986
lfingers 7.12502
lthumb 36.8961 37.9899
rfemur -256.889 -160.515 206.562
rtibia 45.5292
rfoot 364.136 -402.665
rtoes 43.9537
lfemur -27.7956 -5.0657 -31.02
ltibia 31.4061
lfoot -38.8683 25.3059
ltoes -0.882512
1778
root -1.2004 16.7637 29.6779 -515.31 -22.6255 172.079
lowerback -16.0483 0.0681958 -9.5361
upperback -5.7807 0.760394 -4.71956
thorax 2.67011 -0.0080647 0.496458
lowerneck -9.14614 6.09742 2.21543
upperneck -4.74925 7.42587 -9.18269
head 0.5358 3.40519 -3.0678
rclavicle -1.635e-014 4.69132e-014
rhumerus -36.1841 8.26523 -93.4034
rradius 51.5279
rwrist -0.015173
rhand -1.55164 18.1816
rfingers 7.12502
rthumb 24.1034 -10.3244
lclavicle -1.635e-014 4.69132e-014
lhumerus -41.9823 -4.73578 87.4648
lradius 67.0798
lwrist -30.3135
lhand 11.0825 11.2098
lfingers 7.12502
lthumb 36.1523 37.4887
rfemur -257.011 -159.814 206.928
rtibia 45.7873
rfoot 367.518 -402.151
rtoes 41.3394
lfemur -27.5545 -5.09896 -31.0589
ltibia 31.5899
lfoot -38.9569 25.365
ltoes -1.87
1779
root -1.18948 16.7635 29.6627 -515.418 -22.3644 172.383
lowerback -15.9763 0.397622 -9.36405
upperback -5.57128 1.22207 -4.73795
thorax 2.83142 0.226172 0.463802
lowerneck -9.21429 6.15803 2.06459
upperneck -4.92441 7.49306 -9.30733
head 0.494162 3.436 -3.0801
rclavicle 3.28492e-014 -6.2816e-014
rhumerus -36.0047 8.90619 -93.5464
rradius 53.8312
rwrist -1.41004
rhand -1.4068 18.2625
rfingers 7.12502
rthumb 24.2422 -10.2251
lclavicle 3.28492e-014 -6.2816e-014
lhumerus -41.4867 -4.78391 88.0159
lradius 67.5441
lwrist -31.0817
lhand 11.3243 10.4893
lfingers 7.12502
lthumb 36.3813 36.7112
rfemur -257.594 -159.307 208.331
rtibia 45.9728
rfoot 370.183 -401.399
rtoes 40.1696
lfemur -27.7067 -5.05129 -30.7717
ltibia 31.8996
lfoot -39.7515 25.7105
ltoes -2.23731
1780
root -1.17271 16.7404 29.6645 -514.923 -22.6325 172.448
lowerback -16.0165 0.509991 -9.19085
upperback -5.55176 1.35923 -4.82007
thorax 2.87332 0.292062 0.305508
lowerneck -9.32005 6.22277 1.81461
upperneck -5.25751 7.55227 -9.38381
head 0.400482 3.46384 -3.05997
rclavicle 1.92324e-014 -4.92986e-014
rhumerus -35.7472 9.73899 -93.7864
rradius 55.8524
rwrist -2.68205
rhand -1.466 18.2333
rfingers 7.12502
rthumb 24.1855 -10.2618
lclavicle 1.92324e-014 -4.92986e-014
lhumerus -41.1961 -5.06151 88.5519
lradius 68.3112
lwrist -31.7847
lhand 10.1816 10.1481
lfingers 7.12502
lthumb 35.2986 36.6339
rfemur -258.702 -158.709 209.491
rtibia 46.1671
rfoot 369.413 -401.529
rtoes 42.0029
lfemur -28.4607 -5.58186 -30.4732
ltibia 32.1735
lfoot -40.0725 25.5751
ltoes -1.13479
1781
root -1.15696 16.7177 29.6616 -514.354 -22.7802 172.227
lowerback -15.9418 0.625632 -9.25991
upperback -5.59851 1.49926 -5.0077
thorax 2.77491 0.35715 0.168543
lowerneck -9.38853 6.27748 1.67296
upperneck -5.33239 7.62413 -9.48004
head 0.390351 3.49781 -3.06283
rclavicle -5.48646e-014 1.43125e-014
rhumerus -35.4843 10.516 -94.0214
rradius 57.4873
rwrist -4.01672
rhand -0.803966 18.2204
rfingers 7.12502
rthumb 24.8201 -10.1888
lclavicle -5.48646e-014 1.43125e-014
lhumerus -41.0472 -5.20638 88.8719
lradius 69.1492
lwrist -32.2311
lhand 9.74999 9.73501
lfingers 7.12502
lthumb 34.8892 36.3169
rfemur -259.79 -158.132 210.284
rtibia 46.3119
rfoot 369.985 -401.43
rtoes 42.2715
lfemur -29.2438 -5.86094 -30.5355
ltibia 32.5993
lfoot -39.6879 25.3022
ltoes -0.673431
1782
root -1.14515 16.7187 29.6429 -514.516 -22.6073 172.351
lowerback -15.4564 0.925995 -9.10437
upperback -5.53146 1.84169 -5.15615
thorax 2.57808 0.538842 -0.0191833
lowerneck -9.8997 6.29442 1.55142
upperneck -4.66098 7.7408 -9.25667
head 0.683588 3.541 -2.93645
rclavicle 1.2424e-014 4.77083e-014
rhumerus -35.6807 10.9242 -94.2532
rradius 59.3983
rwrist -5.23088
rhand -0.435386 18.4057
rfingers 7.12502
rthumb 25.1733 -9.95436
lclavicle 1.2424e-014 4.77083e-014
lhumerus -40.9043 -5.01561 88.8753
lradius 69.8492
lwrist -32.5846
lhand 5.64979 7.06565
lfingers 7.12502
lthumb 30.9896 34.4691
rfemur -260.073 -157.814 211.044
rtibia 46.4712
rfoot 371.6 -400.982
rtoes 41.5172
lfemur -29.2915 -5.77562 -30.4053
ltibia 33.0041
lfoot -39.9543 24.9992
ltoes -0.20536
